<svg width="24" height="22" viewBox="0 0 24 22" fill="none" xmlns="http://www.w3.org/2000/svg">
<path d="M17.8333 16.8334H17.845M18.3 13.3334H19C20.0872 13.3334 20.6308 13.3334 21.0596 13.511C21.6313 13.7478 22.0856 14.202 22.3224 14.7738C22.5 15.2026 22.5 15.7462 22.5 16.8334C22.5 17.9206 22.5 18.4642 22.3224 18.893C22.0856 19.4647 21.6313 19.9189 21.0596 20.1557C20.6308 20.3334 20.0872 20.3334 19 20.3334H5C3.9128 20.3334 3.3692 20.3334 2.94041 20.1557C2.36867 19.9189 1.91443 19.4647 1.67761 18.893C1.5 18.4642 1.5 17.9206 1.5 16.8334C1.5 15.7462 1.5 15.2026 1.67761 14.7738C1.91443 14.202 2.36867 13.7478 2.94041 13.511C3.3692 13.3334 3.9128 13.3334 5 13.3334H5.7M12 14.5V1.66669M12 14.5L8.5 11M12 14.5L15.5 11" stroke="white" stroke-width="2" stroke-linecap="round" stroke-linejoin="round"/>
</svg>
